<svg xmlns="http://www.w3.org/2000/svg" viewBox="0 0 200 200" role="img" aria-label="Retrato">
  <defs>
    <radialGradient id="bg" cx="50%" cy="35%" r="90%">
      <stop offset="0%" stop-color="rgb(61,75,84)"/>
      <stop offset="100%" stop-color="#23313a"/>
    </radialGradient>
  </defs>
  <rect width="200" height="200" fill="url(#bg)"/>
  <circle cx="100" cy="100" r="94" fill="none" stroke="rgba(255,255,255,0.08)" stroke-width="2"/>
  <path d="M58,200 C58,152 74,138 100,138 C126,138 142,152 142,200 Z" fill="#222a3a"/>
  <path d="M86,140 L100,158 L114,140 C112,152 88,152 86,140 Z" fill="#3b4a5a"/>
  <rect x="90" y="116" width="20" height="24" fill="rgb(194,146,106)"/>
  <ellipse cx="100" cy="88" rx="34" ry="40" fill="#e0b088"/>
  
      <path d="M68,84 C68,66 70,60 100,58 C130,60 132,66 132,84 C130,94 126,100 118,104 L82,104 C74,100 70,94 68,84 Z" fill="#3b2a1a"/>
      <path d="M70,72 C76,60 124,60 130,72 C124,68 76,68 70,72 Z" fill="rgb(77,60,44)"/>
  
  <ellipse cx="88" cy="84" rx="3.4" ry="4" fill="#1c1e24"/>
  <ellipse cx="112" cy="84" rx="3.4" ry="4" fill="#1c1e24"/>
  <circle cx="89" cy="82.5" r="1" fill="#fff" opacity="0.85"/>
  <circle cx="113" cy="82.5" r="1" fill="#fff" opacity="0.85"/>
  <path d="M83,76 C87,72 91,72 95,74" stroke="rgb(154,106,66)" stroke-width="2.2" fill="none" stroke-linecap="round"/>
  <path d="M105,74 C109,72 113,72 117,76" stroke="rgb(154,106,66)" stroke-width="2.2" fill="none" stroke-linecap="round"/>
  <path d="M98,86 C97,92 96,96 92,99" stroke="rgb(172,124,84)" stroke-width="2.4" fill="none" stroke-linecap="round"/>
  <path d="M90,108 C96,112 106,112 112,107" stroke="rgb(169,121,81)" stroke-width="2.6" fill="none" stroke-linecap="round"/>
  
      <rect x="78" y="78" width="20" height="16" rx="3" fill="none" stroke="#22252c" stroke-width="2.5"/>
      <rect x="102" y="78" width="20" height="16" rx="3" fill="none" stroke="#22252c" stroke-width="2.5"/>
      <path d="M98,86 L102,86" stroke="#22252c" stroke-width="2.5"/>
  
  <circle cx="100" cy="150" r="8" fill="none" stroke="rgba(229,72,77,0.55)" stroke-width="2"/>
</svg>
