<svg xmlns="http://www.w3.org/2000/svg" viewBox="0 0 200 200" role="img" aria-label="Retrato">
  <defs>
    <radialGradient id="bg" cx="50%" cy="35%" r="90%">
      <stop offset="0%" stop-color="rgb(61,75,84)"/>
      <stop offset="100%" stop-color="#23313a"/>
    </radialGradient>
  </defs>
  <rect width="200" height="200" fill="url(#bg)"/>
  <circle cx="100" cy="100" r="94" fill="none" stroke="rgba(255,255,255,0.08)" stroke-width="2"/>
  <path d="M58,200 C58,152 74,138 100,138 C126,138 142,152 142,200 Z" fill="#232a35"/>
  <path d="M86,140 L100,158 L114,140 C112,152 88,152 86,140 Z" fill="#3b4a5a"/>
  <rect x="90" y="116" width="20" height="24" fill="rgb(194,146,106)"/>
  <ellipse cx="100" cy="88" rx="34" ry="40" fill="#e0b088"/>
  
      <path d="M70,82 C68,62 132,62 130,82 C130,98 126,108 118,112 L82,112 C74,108 70,98 70,82 Z" fill="#6b4a2a"/>
      <circle cx="74" cy="58" r="11" fill="#6b4a2a"/><circle cx="84" cy="58" r="11" fill="#6b4a2a"/><circle cx="94" cy="66" r="11" fill="#6b4a2a"/><circle cx="104" cy="66" r="11" fill="#6b4a2a"/><circle cx="114" cy="66" r="11" fill="#6b4a2a"/><circle cx="124" cy="66" r="11" fill="#6b4a2a"/>
  
  <ellipse cx="88" cy="84" rx="3.4" ry="4" fill="#1c1e24"/>
  <ellipse cx="112" cy="84" rx="3.4" ry="4" fill="#1c1e24"/>
  <circle cx="89" cy="82.5" r="1" fill="#fff" opacity="0.85"/>
  <circle cx="113" cy="82.5" r="1" fill="#fff" opacity="0.85"/>
  <path d="M83,76 C87,72 91,72 95,74" stroke="rgb(154,106,66)" stroke-width="2.2" fill="none" stroke-linecap="round"/>
  <path d="M105,74 C109,72 113,72 117,76" stroke="rgb(154,106,66)" stroke-width="2.2" fill="none" stroke-linecap="round"/>
  <path d="M98,86 C97,92 96,96 92,99" stroke="rgb(172,124,84)" stroke-width="2.4" fill="none" stroke-linecap="round"/>
  <path d="M90,108 C96,112 106,112 112,107" stroke="rgb(169,121,81)" stroke-width="2.6" fill="none" stroke-linecap="round"/>
  
  
  <circle cx="100" cy="150" r="8" fill="none" stroke="rgba(229,72,77,0.55)" stroke-width="2"/>
</svg>
